<?xml version="1.0" encoding="UTF-8" standalone="no"?>
<!DOCTYPE svg PUBLIC "-//W3C//DTD SVG 1.1//EN"
 "http://www.w3.org/Graphics/SVG/1.1/DTD/svg11.dtd">
<!-- Generated by graphviz version 14.0.4 (20251115.1723)
 -->
<!-- Title: G Pages: 1 -->
<svg width="358pt" height="398pt"
 viewBox="0.00 0.00 358.00 398.00" xmlns="http://www.w3.org/2000/svg" xmlns:xlink="http://www.w3.org/1999/xlink">
<g id="graph0" class="graph" transform="scale(1 1) rotate(0) translate(4 394)">
<title>G</title>
<polygon fill="white" stroke="none" points="-4,4 -4,-394 354.3,-394 354.3,4 -4,4"/>
<!-- Node20034f06c30 -->
<g id="node1" class="node">
<title>Node20034f06c30</title>
<ellipse fill="#b141d3" stroke="black" cx="215.09" cy="-372" rx="27" ry="18"/>
<text xml:space="preserve" text-anchor="middle" x="215.09" y="-366.95" font-family="Times New Roman,serif" font-size="14.00">root</text>
</g>
<!-- Node20034f06d10 -->
<g id="node2" class="node">
<title>Node20034f06d10</title>
<ellipse fill="#e3e029" stroke="black" cx="141.09" cy="-283.5" rx="27" ry="18"/>
<text xml:space="preserve" text-anchor="middle" x="141.09" y="-278.45" font-family="Times New Roman,serif" font-size="14.00">a</text>
</g>
<!-- Node20034f06c30&#45;&gt;Node20034f06d10 -->
<g id="edge4" class="edge">
<title>Node20034f06c30&#45;&gt;Node20034f06d10</title>
<path fill="none" stroke="#662491" d="M202.2,-355.93C190.92,-342.74 174.33,-323.36 161.29,-308.11"/>
<polygon fill="#662491" stroke="#662491" points="164.23,-306.16 155.07,-300.83 158.91,-310.71 164.23,-306.16"/>
<text xml:space="preserve" text-anchor="middle" x="189.59" y="-322.7" font-family="Times New Roman,serif" font-size="14.00"> a</text>
</g>
<!-- Node20034f01340 -->
<g id="node6" class="node">
<title>Node20034f01340</title>
<ellipse fill="#e3e029" stroke="black" cx="215.09" cy="-283.5" rx="27" ry="18"/>
<text xml:space="preserve" text-anchor="middle" x="215.09" y="-278.45" font-family="Times New Roman,serif" font-size="14.00">b</text>
</g>
<!-- Node20034f06c30&#45;&gt;Node20034f01340 -->
<g id="edge9" class="edge">
<title>Node20034f06c30&#45;&gt;Node20034f01340</title>
<path fill="none" stroke="#662491" d="M215.09,-353.91C215.09,-342.26 215.09,-326.55 215.09,-313.02"/>
<polygon fill="#662491" stroke="#662491" points="218.59,-313.36 215.09,-303.36 211.59,-313.36 218.59,-313.36"/>
<text xml:space="preserve" text-anchor="middle" x="220.34" y="-322.7" font-family="Times New Roman,serif" font-size="14.00"> b</text>
</g>
<!-- Node20034f017a0 -->
<g id="node11" class="node">
<title>Node20034f017a0</title>
<ellipse fill="#e3e029" stroke="black" cx="294.09" cy="-283.5" rx="27" ry="18"/>
<text xml:space="preserve" text-anchor="middle" x="294.09" y="-278.45" font-family="Times New Roman,serif" font-size="14.00">c</text>
</g>
<!-- Node20034f06c30&#45;&gt;Node20034f017a0 -->
<g id="edge11" class="edge">
<title>Node20034f06c30&#45;&gt;Node20034f017a0</title>
<path fill="none" stroke="#662491" d="M228.49,-356.33C240.75,-342.91 259.08,-322.84 273.25,-307.33"/>
<polygon fill="#662491" stroke="#662491" points="275.44,-310.11 279.6,-300.36 270.28,-305.39 275.44,-310.11"/>
<text xml:space="preserve" text-anchor="middle" x="266.54" y="-322.7" font-family="Times New Roman,serif" font-size="14.00"> c</text>
</g>
<!-- Node20034f06df0 -->
<g id="node3" class="node">
<title>Node20034f06df0</title>
<ellipse fill="#e3e029" stroke="black" cx="134.09" cy="-195" rx="27" ry="18"/>
<text xml:space="preserve" text-anchor="middle" x="134.09" y="-189.95" font-family="Times New Roman,serif" font-size="14.00">ab</text>
</g>
<!-- Node20034f06d10&#45;&gt;Node20034f06df0 -->
<g id="edge3" class="edge">
<title>Node20034f06d10&#45;&gt;Node20034f06df0</title>
<path fill="none" stroke="#662491" d="M139.71,-265.41C138.77,-253.76 137.49,-238.05 136.4,-224.52"/>
<polygon fill="#662491" stroke="#662491" points="139.91,-224.54 135.62,-214.86 132.94,-225.11 139.91,-224.54"/>
<text xml:space="preserve" text-anchor="middle" x="143.47" y="-234.2" font-family="Times New Roman,serif" font-size="14.00"> b</text>
</g>
<!-- Node20034f06ed0 -->
<g id="node4" class="node">
<title>Node20034f06ed0</title>
<ellipse fill="#06c78a" stroke="black" cx="40.09" cy="-106.5" rx="40.09" ry="18"/>
<text xml:space="preserve" text-anchor="middle" x="40.09" y="-101.45" font-family="Times New Roman,serif" font-size="14.00">abc | 12</text>
</g>
<!-- Node20034f06df0&#45;&gt;Node20034f06ed0 -->
<g id="edge1" class="edge">
<title>Node20034f06df0&#45;&gt;Node20034f06ed0</title>
<path fill="none" stroke="#662491" d="M118.99,-180.1C104.58,-166.84 82.6,-146.62 65.5,-130.88"/>
<polygon fill="#662491" stroke="#662491" points="67.91,-128.34 58.18,-124.14 63.17,-133.49 67.91,-128.34"/>
<text xml:space="preserve" text-anchor="middle" x="100.39" y="-145.7" font-family="Times New Roman,serif" font-size="14.00"> c</text>
</g>
<!-- Node20034f01260 -->
<g id="node5" class="node">
<title>Node20034f01260</title>
<ellipse fill="#06c78a" stroke="black" cx="134.09" cy="-106.5" rx="36" ry="18"/>
<text xml:space="preserve" text-anchor="middle" x="134.09" y="-101.45" font-family="Times New Roman,serif" font-size="14.00">abd | 3</text>
</g>
<!-- Node20034f06df0&#45;&gt;Node20034f01260 -->
<g id="edge2" class="edge">
<title>Node20034f06df0&#45;&gt;Node20034f01260</title>
<path fill="none" stroke="#662491" d="M134.09,-176.91C134.09,-165.26 134.09,-149.55 134.09,-136.02"/>
<polygon fill="#662491" stroke="#662491" points="137.59,-136.36 134.09,-126.36 130.59,-136.36 137.59,-136.36"/>
<text xml:space="preserve" text-anchor="middle" x="139.34" y="-145.7" font-family="Times New Roman,serif" font-size="14.00"> d</text>
</g>
<!-- Node20034f01420 -->
<g id="node7" class="node">
<title>Node20034f01420</title>
<ellipse fill="#e3e029" stroke="black" cx="215.09" cy="-195" rx="27" ry="18"/>
<text xml:space="preserve" text-anchor="middle" x="215.09" y="-189.95" font-family="Times New Roman,serif" font-size="14.00">ba</text>
</g>
<!-- Node20034f01340&#45;&gt;Node20034f01420 -->
<g id="edge8" class="edge">
<title>Node20034f01340&#45;&gt;Node20034f01420</title>
<path fill="none" stroke="#662491" d="M215.09,-265.41C215.09,-253.76 215.09,-238.05 215.09,-224.52"/>
<polygon fill="#662491" stroke="#662491" points="218.59,-224.86 215.09,-214.86 211.59,-224.86 218.59,-224.86"/>
<text xml:space="preserve" text-anchor="middle" x="219.97" y="-234.2" font-family="Times New Roman,serif" font-size="14.00"> a</text>
</g>
<!-- Node20034f01500 -->
<g id="node8" class="node">
<title>Node20034f01500</title>
<ellipse fill="#e3e029" stroke="black" cx="215.09" cy="-106.5" rx="27" ry="18"/>
<text xml:space="preserve" text-anchor="middle" x="215.09" y="-101.45" font-family="Times New Roman,serif" font-size="14.00">bab</text>
</g>
<!-- Node20034f01420&#45;&gt;Node20034f01500 -->
<g id="edge6" class="edge">
<title>Node20034f01420&#45;&gt;Node20034f01500</title>
<path fill="none" stroke="#662491" d="M215.09,-176.91C215.09,-165.26 215.09,-149.55 215.09,-136.02"/>
<polygon fill="#662491" stroke="#662491" points="218.59,-136.36 215.09,-126.36 211.59,-136.36 218.59,-136.36"/>
<text xml:space="preserve" text-anchor="middle" x="220.34" y="-145.7" font-family="Times New Roman,serif" font-size="14.00"> b</text>
</g>
<!-- Node20034f016c0 -->
<g id="node10" class="node">
<title>Node20034f016c0</title>
<ellipse fill="#06c78a" stroke="black" cx="305.09" cy="-106.5" rx="45.21" ry="18"/>
<text xml:space="preserve" text-anchor="middle" x="305.09" y="-101.45" font-family="Times New Roman,serif" font-size="14.00">bad | 152</text>
</g>
<!-- Node20034f01420&#45;&gt;Node20034f016c0 -->
<g id="edge7" class="edge">
<title>Node20034f01420&#45;&gt;Node20034f016c0</title>
<path fill="none" stroke="#662491" d="M229.95,-179.72C243.64,-166.56 264.22,-146.78 280.38,-131.25"/>
<polygon fill="#662491" stroke="#662491" points="282.5,-134.07 287.28,-124.62 277.64,-129.03 282.5,-134.07"/>
<text xml:space="preserve" text-anchor="middle" x="273.4" y="-145.7" font-family="Times New Roman,serif" font-size="14.00"> d</text>
</g>
<!-- Node20034f015e0 -->
<g id="node9" class="node">
<title>Node20034f015e0</title>
<ellipse fill="#06c78a" stroke="black" cx="215.09" cy="-18" rx="43.67" ry="18"/>
<text xml:space="preserve" text-anchor="middle" x="215.09" y="-12.95" font-family="Times New Roman,serif" font-size="14.00">baby | &#45;8</text>
</g>
<!-- Node20034f01500&#45;&gt;Node20034f015e0 -->
<g id="edge5" class="edge">
<title>Node20034f01500&#45;&gt;Node20034f015e0</title>
<path fill="none" stroke="#662491" d="M215.09,-88.41C215.09,-76.76 215.09,-61.05 215.09,-47.52"/>
<polygon fill="#662491" stroke="#662491" points="218.59,-47.86 215.09,-37.86 211.59,-47.86 218.59,-47.86"/>
<text xml:space="preserve" text-anchor="middle" x="220.34" y="-57.2" font-family="Times New Roman,serif" font-size="14.00"> y</text>
</g>
<!-- Node20034f01880 -->
<g id="node12" class="node">
<title>Node20034f01880</title>
<ellipse fill="#06c78a" stroke="black" cx="300.09" cy="-195" rx="40.09" ry="18"/>
<text xml:space="preserve" text-anchor="middle" x="300.09" y="-189.95" font-family="Times New Roman,serif" font-size="14.00">ca | 152</text>
</g>
<!-- Node20034f017a0&#45;&gt;Node20034f01880 -->
<g id="edge10" class="edge">
<title>Node20034f017a0&#45;&gt;Node20034f01880</title>
<path fill="none" stroke="#662491" d="M295.28,-265.41C296.09,-253.76 297.18,-238.05 298.11,-224.52"/>
<polygon fill="#662491" stroke="#662491" points="301.58,-225.08 298.78,-214.86 294.6,-224.59 301.58,-225.08"/>
<text xml:space="preserve" text-anchor="middle" x="302.5" y="-234.2" font-family="Times New Roman,serif" font-size="14.00"> a</text>
</g>
</g>
</svg>
